<svg width="309" height="384" viewBox="0 0 309 384" fill="none" xmlns="http://www.w3.org/2000/svg">
<path fill-rule="evenodd" clip-rule="evenodd" d="M143.85 42.9935C143.791 45.5425 144.791 47.5425 146.85 48.9935C145.482 50.0875 144.315 49.7535 143.35 47.9935C141.254 49.2085 141.421 50.0425 143.85 50.4935C142.115 51.1445 140.448 50.9785 138.85 49.9935C139.037 51.3105 138.37 52.6435 136.85 53.9935C136.042 53.6855 135.375 53.1855 134.85 52.4935C136.081 51.3105 136.081 50.1445 134.85 48.9935C134.517 49.6605 134.183 50.3265 133.85 50.9935C132.63 49.7825 131.463 49.7825 130.35 50.9935C129.432 49.1175 127.932 48.1175 125.85 47.9935C117.941 35.8495 109.774 23.8495 101.35 11.9935C100.683 9.66054 100.683 7.32654 101.35 4.99354C103.048 3.75254 104.548 2.41954 105.85 0.993541C107.978 -0.135459 110.311 -0.302459 112.85 0.493541C115.017 2.66054 117.183 4.82654 119.35 6.99354C127.347 19.1485 135.513 31.1485 143.85 42.9935Z" fill="#00FF66"/>
<path fill-rule="evenodd" clip-rule="evenodd" d="M208.85 53.9935C203.128 60.0485 196.794 65.3825 189.85 69.9935C187.008 70.1085 184.508 71.1085 182.35 72.9935C180.85 72.4935 179.35 71.9935 177.85 71.4935C178.183 71.1605 178.517 70.8265 178.85 70.4935C177.412 70.2745 176.079 69.7745 174.85 68.9935C176.183 67.6605 176.183 66.3265 174.85 64.9935C175.375 64.3015 176.042 63.8015 176.85 63.4935C175.517 63.1605 174.183 62.8265 172.85 62.4935C174.106 62.0765 174.773 61.2435 174.85 59.9935C182.24 53.1205 190.24 46.9545 198.85 41.4935C208.653 40.2235 211.987 44.3895 208.85 53.9935Z" fill="#00FF66"/>
<path fill-rule="evenodd" clip-rule="evenodd" d="M208.85 53.9935C211.987 44.3895 208.653 40.2235 198.85 41.4935C190.24 46.9545 182.24 53.1205 174.85 59.9935C171.906 61.8045 168.906 63.6375 165.85 65.4935C163.138 66.3195 160.805 65.8195 158.85 63.9935C161.133 63.8855 163.133 63.0525 164.85 61.4935C173.826 54.0065 183.159 47.0065 192.85 40.4935C197.916 38.8565 202.916 38.8565 207.85 40.4935C212.61 44.8945 212.943 49.3945 208.85 53.9935Z" fill="#00FF66"/>
<path fill-rule="evenodd" clip-rule="evenodd" d="M105.85 0.99353C104.548 2.41953 103.048 3.75253 101.35 4.99353C100.683 7.32653 100.683 9.66053 101.35 11.9935C109.774 23.8495 117.941 35.8495 125.85 47.9935C135.446 62.5825 145.78 76.5825 156.85 89.9935C154.101 90.2195 151.434 89.8865 148.85 88.9935C143.438 83.6495 139.771 78.1495 137.85 72.4935C136.001 71.4005 134.334 70.0675 132.85 68.4935C133.183 68.1605 133.517 67.8265 133.85 67.4935C131.745 66.3625 129.745 65.1965 127.85 63.9935C115.88 48.0775 104.38 31.7435 93.3495 14.9935C91.2825 8.90753 93.1165 4.74153 98.8495 2.49353C101.216 2.05353 103.549 1.55353 105.85 0.99353Z" fill="#00FF66"/>
<path fill-rule="evenodd" clip-rule="evenodd" d="M143.85 42.9935C149.083 49.7795 154.083 56.7795 158.85 63.9935C160.805 65.8195 163.138 66.3195 165.85 65.4935C168.906 63.6375 171.906 61.8045 174.85 59.9935C174.773 61.2435 174.106 62.0765 172.85 62.4935C174.183 62.8265 175.517 63.1605 176.85 63.4935C176.042 63.8015 175.375 64.3015 174.85 64.9935C176.183 66.3265 176.183 67.6605 174.85 68.9935C176.079 69.7745 177.412 70.2745 178.85 70.4935C178.517 70.8265 178.183 71.1605 177.85 71.4935C179.35 71.9935 180.85 72.4935 182.35 72.9935C184.508 71.1085 187.008 70.1085 189.85 69.9935C180.874 76.6285 171.874 83.2955 162.85 89.9935C160.85 89.9935 158.85 89.9935 156.85 89.9935C145.78 76.5825 135.446 62.5825 125.85 47.9935C127.932 48.1175 129.432 49.1175 130.35 50.9935C131.463 49.7825 132.63 49.7825 133.85 50.9935C134.183 50.3265 134.517 49.6605 134.85 48.9935C136.081 50.1445 136.081 51.3105 134.85 52.4935C135.375 53.1855 136.042 53.6855 136.85 53.9935C138.37 52.6435 139.037 51.3105 138.85 49.9935C140.448 50.9785 142.115 51.1445 143.85 50.4935C141.421 50.0425 141.254 49.2085 143.35 47.9935C144.315 49.7535 145.482 50.0875 146.85 48.9935C144.791 47.5425 143.791 45.5425 143.85 42.9935Z" fill="#00FF66"/>
<path fill-rule="evenodd" clip-rule="evenodd" d="M127.85 63.9935C129.745 65.1965 131.745 66.3625 133.85 67.4935C133.517 67.8265 133.183 68.1605 132.85 68.4935C134.334 70.0675 136.001 71.4005 137.85 72.4935C139.771 78.1495 143.438 83.6495 148.85 88.9935C151.434 89.8865 154.101 90.2195 156.85 89.9935C158.85 89.9935 160.85 89.9935 162.85 89.9935C158.034 91.1435 153.034 91.3095 147.85 90.4935C140.174 82.3315 133.507 73.4985 127.85 63.9935Z" fill="#00FF66"/>
<path fill-rule="evenodd" clip-rule="evenodd" d="M297.85 134.994C299.84 141.8 302.173 148.466 304.85 154.994C303.212 153.58 301.878 153.914 300.85 155.994C300.183 153.994 299.517 151.994 298.85 149.994C298.183 151.327 297.517 152.661 296.85 153.994C295.85 152.994 294.85 151.994 293.85 150.994C296.002 147.542 296.336 143.875 294.85 139.994C293.921 141.183 293.588 142.516 293.85 143.994C292.372 144.256 291.039 143.923 289.85 142.994C291.884 140.895 292.218 138.562 290.85 135.994C290.158 136.519 289.658 137.186 289.35 137.994C287.683 135.327 286.017 135.327 284.35 137.994C284.12 134.281 282.953 133.614 280.85 135.994C278.13 133.271 275.13 130.937 271.85 128.994C274.157 127.166 273.824 125.5 270.85 123.994C269.457 125.357 267.791 126.19 265.85 126.494C269.205 128.033 271.538 130.533 272.85 133.994C266.659 129.898 259.992 126.898 252.85 124.994C252.85 124.327 252.85 123.661 252.85 122.994C254.453 123.182 255.787 122.682 256.85 121.494C256.517 121.161 256.183 120.827 255.85 120.494C256.707 119.805 257.373 118.972 257.85 117.994C257.298 116.491 257.298 114.825 257.85 112.994C261.452 112.816 261.452 111.816 257.85 109.994C258.517 109.327 259.183 108.661 259.85 107.994C257.578 107.009 255.245 106.175 252.85 105.494C206.517 104.827 160.183 104.827 113.85 105.494C112.517 106.494 111.183 107.494 109.85 108.494C111.948 107.51 113.948 107.843 115.85 109.494C114.517 109.827 113.183 110.161 111.85 110.494C113.651 110.811 113.984 111.478 112.85 112.494C113.832 115.232 114.498 118.066 114.85 120.994C117.686 120.696 118.186 121.363 116.35 122.994C114.537 121.885 113.704 122.552 113.85 124.994C115.183 124.994 116.517 124.994 117.85 124.994C114.534 125.841 111.2 127.008 107.85 128.494C105.766 129.191 104.099 130.358 102.85 131.994C100.867 132.965 98.8666 133.965 96.8496 134.994C96.9266 133.744 97.5936 132.911 98.8496 132.494C98.1386 131.239 97.3056 130.073 96.3496 128.994C95.4566 130.205 94.6236 130.205 93.8496 128.994C95.9126 126.719 95.2456 124.886 91.8496 123.494C93.7886 121.622 94.9556 119.455 95.3496 116.994C94.0866 119.291 92.2526 120.124 89.8496 119.494C92.4386 118.469 93.6046 116.636 93.3496 113.994C91.2786 114.858 89.6116 116.191 88.3496 117.994C87.9666 117.438 87.4666 117.105 86.8496 116.994C88.4436 115.511 90.1096 114.011 91.8496 112.494C97.1716 109.687 102.506 107.187 107.85 104.994C109.765 105.278 111.431 104.945 112.85 103.994C159.161 102.847 205.494 102.681 251.85 103.494C267.209 106.256 280.376 113.089 291.35 123.994C294.548 127.057 296.714 130.723 297.85 134.994Z" fill="#1F7644"/>
<path fill-rule="evenodd" clip-rule="evenodd" d="M252.85 122.994C250.517 122.994 248.183 122.994 245.85 122.994C238.782 122.312 231.616 121.645 224.35 120.994C200.386 121.787 174.719 122.121 147.35 121.994C146.658 121.469 146.158 120.802 145.85 119.994C147.361 117.656 147.027 116.99 144.85 117.994C143.436 116.87 141.936 115.87 140.35 114.994C140.017 115.327 139.683 115.661 139.35 115.994C139.101 114.87 138.601 113.87 137.85 112.994C137.439 113.756 137.273 114.756 137.35 115.994C137.017 115.661 136.683 115.327 136.35 114.994C136.017 115.994 135.683 116.994 135.35 117.994C134.696 116.798 134.196 116.798 133.85 117.994C134.726 118.745 135.726 119.245 136.85 119.494C135.899 120.212 135.733 121.045 136.35 121.994C137.683 121.327 138.683 120.327 139.35 118.994C139.84 120.287 140.007 121.621 139.85 122.994C134.785 123.275 129.785 122.942 124.85 121.994C122.005 122.26 119.672 123.26 117.85 124.994C116.517 124.994 115.183 124.994 113.85 124.994C113.704 122.552 114.537 121.885 116.35 122.994C118.186 121.363 117.686 120.696 114.85 120.994C114.498 118.066 113.832 115.232 112.85 112.494C113.984 111.478 113.651 110.811 111.85 110.494C113.183 110.161 114.517 109.827 115.85 109.494C113.948 107.843 111.948 107.51 109.85 108.494C111.183 107.494 112.517 106.494 113.85 105.494C160.183 104.827 206.517 104.827 252.85 105.494C255.245 106.175 257.578 107.009 259.85 107.994C259.183 108.661 258.517 109.327 257.85 109.994C261.452 111.816 261.452 112.816 257.85 112.994C257.298 114.825 257.298 116.491 257.85 117.994C257.373 118.972 256.707 119.805 255.85 120.494C256.183 120.827 256.517 121.161 256.85 121.494C255.787 122.682 254.453 123.182 252.85 122.994Z" fill="#1E7644"/>
<path fill-rule="evenodd" clip-rule="evenodd" d="M51.8496 112.994C51.9356 113.99 51.6016 114.823 50.8496 115.494C52.5566 115.689 54.2236 115.689 55.8496 115.494C55.6566 117.139 55.4896 118.973 55.3496 120.994C54.6826 119.661 54.0166 118.327 53.3496 116.994C52.6576 117.519 52.1576 118.186 51.8496 118.994C53.3376 122.109 54.6716 125.276 55.8496 128.494C55.4056 130.256 54.9056 130.089 54.3496 127.994C53.5666 129.927 54.0666 131.427 55.8496 132.494C55.5166 132.827 55.1826 133.161 54.8496 133.494C55.7976 133.977 56.7976 134.143 57.8496 133.994C57.5506 131.89 57.8836 129.89 58.8496 127.994C59.6706 130.941 60.1706 133.941 60.3496 136.994C61.3956 135.404 62.5626 133.904 63.8496 132.494C61.7456 130.658 61.4116 128.492 62.8496 125.994C65.4236 128.139 67.2566 130.806 68.3496 133.994C71.6876 127.374 76.0206 122.374 81.3496 118.994C81.7486 119.222 81.9146 119.556 81.8496 119.994C75.7176 126.449 70.3846 133.449 65.8496 140.994C66.1576 138.57 65.8236 136.237 64.8496 133.994C63.7886 138.443 61.9556 142.443 59.3496 145.994C59.0166 144.994 58.6826 143.994 58.3496 142.994C58.0196 145.905 56.8526 148.405 54.8496 150.494C57.2506 151.299 57.0836 152.132 54.3496 152.994C54.2196 148.543 53.5536 144.21 52.3496 139.994C52.1786 145.358 51.6786 150.692 50.8496 155.994C49.7486 153.657 49.5816 150.99 50.3496 147.994C49.4346 147.166 48.7686 146.166 48.3496 144.994C47.0976 148.049 46.5976 151.049 46.8496 153.994C46.1536 150.938 45.3196 147.938 44.3496 144.994C44.1826 151.327 44.0166 157.661 43.8496 163.994C43.8716 170.734 44.5376 177.234 45.8496 183.494C44.2486 188.733 43.2486 194.233 42.8496 199.994C42.1826 196.661 41.5166 193.327 40.8496 189.994C40.1826 195.327 39.5166 200.661 38.8496 205.994C38.1826 198.661 37.5166 191.327 36.8496 183.994C35.8536 189.957 35.5206 195.957 35.8496 201.994C34.5166 201.994 33.1826 201.994 31.8496 201.994C31.8496 203.994 31.8496 205.994 31.8496 207.994C30.5166 207.994 29.1826 207.994 27.8496 207.994C27.8496 214.661 27.8496 221.327 27.8496 227.994C24.5166 227.994 21.1826 227.994 17.8496 227.994C17.9266 225.482 16.9266 223.482 14.8496 221.994C14.0196 216.022 13.5196 210.022 13.3496 203.994C13.0166 203.661 12.6826 203.327 12.3496 202.994C12.5696 206.742 11.2366 209.742 8.34963 211.994C7.85463 213.967 7.68763 215.967 7.84963 217.994C9.18263 217.994 10.5166 217.994 11.8496 217.994C12.0636 221.751 11.0636 222.418 8.84963 219.994C6.97163 229.767 6.63863 239.934 7.84963 250.494C7.84463 256.04 7.17763 261.206 5.84963 265.994C6.18263 247.982 5.84963 229.982 4.84963 211.994C4.27163 219.035 3.60463 224.701 2.84963 228.994C2.68263 216.323 2.84963 203.656 3.34963 190.994C4.69163 192.396 5.52563 192.063 5.84963 189.994C5.18063 187.466 4.34763 187.466 3.34963 189.994C2.68263 182.661 2.68263 175.327 3.34963 167.994C3.68263 173.327 4.01663 178.661 4.34963 183.994C4.76263 181.262 5.42963 178.595 6.34963 175.994C6.65863 177.26 7.15863 178.427 7.84963 179.494C7.10963 183.708 6.77663 188.374 6.84963 193.494C7.79763 193.977 8.79763 194.143 9.84963 193.994C10.3106 190.061 10.6436 186.061 10.8496 181.994C11.6786 186.961 12.1786 191.961 12.3496 196.994C13.2646 196.166 13.9306 195.166 14.3496 193.994C14.6826 194.327 15.0166 194.661 15.3496 194.994C15.9446 193.595 15.7776 192.262 14.8496 190.994C15.3496 189.994 15.8496 188.994 16.3496 187.994C17.3656 189.128 18.0326 188.795 18.3496 186.994C19.2636 188.148 20.0966 187.981 20.8496 186.494C19.6776 186.075 18.6776 185.409 17.8496 184.494C18.6616 178.409 19.1616 172.242 19.3496 165.994C19.6756 172.18 21.0096 172.18 23.3496 165.994C25.0616 161.386 25.2286 156.719 23.8496 151.994C24.8496 151.994 25.8496 151.994 26.8496 151.994C26.5766 150.043 27.2426 148.543 28.8496 147.494C28.1826 147.161 27.5166 146.827 26.8496 146.494C30.4536 145.16 31.6206 142.66 30.3496 138.994C29.0166 139.661 28.0166 140.661 27.3496 141.994C26.8496 140.494 26.3496 138.994 25.8496 137.494C27.4236 136.975 29.0896 135.809 30.8496 133.994C29.8856 131.411 28.5516 130.911 26.8496 132.494C27.1826 132.827 27.5166 133.161 27.8496 133.494C26.5566 133.984 25.2226 134.151 23.8496 133.994C23.8496 135.327 23.8496 136.661 23.8496 137.994C21.2906 138.296 18.9566 137.962 16.8496 136.994C18.1116 136.587 19.4446 136.254 20.8496 135.994C22.0606 135.22 22.0606 134.387 20.8496 133.494C21.8716 131.178 23.3716 130.678 25.3496 131.994C25.5166 131.661 25.6826 131.327 25.8496 130.994C24.9736 130.243 23.9736 129.743 22.8496 129.494C24.4046 128.205 26.0706 127.538 27.8496 127.494C26.3566 128.65 26.5236 129.484 28.3496 129.994C30.7196 128.3 32.8866 126.3 34.8496 123.994C35.5166 124.661 36.1826 125.327 36.8496 125.994C38.0566 122.882 40.0566 120.382 42.8496 118.494C41.5166 117.494 41.5166 116.494 42.8496 115.494C46.8206 115.434 49.8206 114.601 51.8496 112.994Z" fill="#195632"/>
<path fill-rule="evenodd" clip-rule="evenodd" d="M96.8497 134.994C95.5167 136.994 93.8497 138.661 91.8497 139.994C90.4187 139.613 89.5857 138.613 89.3497 136.994C84.9697 139.194 84.8037 140.528 88.8497 140.994C85.9657 145.322 82.9657 148.822 79.8497 151.494C80.6187 157.217 79.2857 162.55 75.8497 167.494C75.9387 172.717 75.9387 177.884 75.8497 182.994C74.6987 184.225 73.5327 184.225 72.3497 182.994C71.5287 186.048 71.6947 189.048 72.8497 191.994C74.3977 189.487 75.3977 189.82 75.8497 192.994C75.0197 203.153 74.5197 213.486 74.3497 223.994C74.1577 221.917 73.6577 219.917 72.8497 217.994C72.1827 225.327 71.5167 232.661 70.8497 239.994C68.6357 237.57 67.6357 238.237 67.8497 241.994C66.5167 241.994 65.1827 241.994 63.8497 241.994C65.1827 245.994 66.5167 249.994 67.8497 253.994C66.5167 253.994 65.1827 253.994 63.8497 253.994C63.8497 259.327 63.8497 264.661 63.8497 269.994C66.0247 269.812 68.0247 269.145 69.8497 267.994C71.0217 268.413 72.0217 269.079 72.8497 269.994C73.8157 268.098 74.1487 266.098 73.8497 263.994C75.7397 263.791 77.2397 264.457 78.3497 265.994C79.0447 268.216 79.8777 270.383 80.8497 272.494C80.6147 273.367 80.2807 274.201 79.8497 274.994C80.8717 275.848 81.7047 276.848 82.3497 277.994C84.0567 277.356 85.8897 277.356 87.8497 277.994C87.8497 278.327 87.8497 278.661 87.8497 278.994C89.1807 281.418 90.6807 283.751 92.3497 285.994C92.6827 285.327 93.0167 284.661 93.3497 283.994C96.2267 284.95 98.8937 286.283 101.35 287.994C112.683 287.327 124.017 286.661 135.35 285.994C135.683 286.327 136.017 286.661 136.35 286.994C137.417 286.303 138.584 285.803 139.85 285.494C153.396 285.326 166.896 284.492 180.35 282.994C185.331 283.816 190.664 283.482 196.35 281.994C197.909 282.523 199.409 283.19 200.85 283.994C202.046 283.648 202.046 283.148 200.85 282.494C201.85 282.161 202.85 281.827 203.85 281.494C212.052 281.283 220.219 280.783 228.35 279.994C230.102 280.78 231.936 280.614 233.85 279.494C239.901 279.286 245.901 278.786 251.85 277.994C253.046 278.34 253.046 278.84 251.85 279.494C249.015 280.278 246.349 280.611 243.85 280.494C245.517 281.661 247.183 282.827 248.85 283.994C249.828 283.517 250.661 282.851 251.35 281.994C251.658 282.802 252.158 283.469 252.85 283.994C253.517 282.661 254.183 281.327 254.85 279.994C255.517 280.661 256.183 281.327 256.85 281.994C258.231 278.814 260.564 276.814 263.85 275.994C264.517 275.994 265.183 275.994 265.85 275.994C269.549 274.983 273.216 274.983 276.85 275.994C279.246 272.616 281.58 269.282 283.85 265.994C283.85 265.327 284.183 264.994 284.85 264.994C288.666 262.364 290.666 258.698 290.85 253.994C291.85 253.994 292.85 253.994 293.85 253.994C293.528 230.48 293.528 207.147 293.85 183.994C298.943 183.882 298.943 183.049 293.85 181.494C294.808 180.347 294.475 179.347 292.85 178.494C294.159 172.383 294.159 166.216 292.85 159.994C292.158 160.519 291.658 161.186 291.35 161.994C290.898 158.617 290.232 155.283 289.35 151.994C287.241 151.459 286.741 150.459 287.85 148.994C285.049 145.547 282.716 141.88 280.85 137.994C278.665 137.79 276.665 137.124 274.85 135.994C273.85 135.661 273.183 134.994 272.85 133.994C271.538 130.533 269.205 128.033 265.85 126.494C267.791 126.19 269.457 125.357 270.85 123.994C273.824 125.5 274.157 127.166 271.85 128.994C275.13 130.937 278.13 133.271 280.85 135.994C282.953 133.614 284.12 134.281 284.35 137.994C286.017 135.327 287.683 135.327 289.35 137.994C289.658 137.186 290.158 136.519 290.85 135.994C292.218 138.562 291.884 140.895 289.85 142.994C291.039 143.923 292.372 144.256 293.85 143.994C293.588 142.516 293.921 141.183 294.85 139.994C296.336 143.875 296.002 147.542 293.85 150.994C294.85 151.994 295.85 152.994 296.85 153.994C297.517 152.661 298.183 151.327 298.85 149.994C299.517 151.994 300.183 153.994 300.85 155.994C301.878 153.914 303.212 153.58 304.85 154.994C304.85 155.661 304.85 156.327 304.85 156.994C304.184 161.843 303.517 166.843 302.85 171.994C301.292 166.8 300.292 166.8 299.85 171.994C298.517 171.994 297.183 171.994 295.85 171.994C295.537 174.741 295.87 177.408 296.85 179.994C297.517 178.661 298.183 177.327 298.85 175.994C299.837 179.262 300.17 182.596 299.85 185.994C294.517 186.661 294.517 187.327 299.85 187.994C299.85 190.661 299.85 193.327 299.85 195.994C301.183 195.994 302.517 195.994 303.85 195.994C303.85 203.994 303.85 211.994 303.85 219.994C302.517 219.994 301.183 219.994 299.85 219.994C299.321 216.143 299.988 212.643 301.85 209.494C300.379 207.251 299.379 204.751 298.85 201.994C297.039 196.752 296.039 197.086 295.85 202.994C296.703 206.963 297.369 210.963 297.85 214.994C297.732 217.865 297.066 220.532 295.85 222.994C297.231 225.129 298.231 227.462 298.85 229.994C300.192 228.489 301.858 227.822 303.85 227.994C303.85 230.661 303.85 233.327 303.85 235.994C301.661 235.701 299.661 235.201 297.85 234.494C297.617 237.854 297.951 241.354 298.85 244.994C298.38 247.268 297.38 249.268 295.85 250.994C296.059 251.58 296.393 252.08 296.85 252.494C296.23 254.967 295.564 257.467 294.85 259.994C294.183 259.327 293.517 258.661 292.85 257.994C291.69 261.953 291.523 265.953 292.35 269.994C293.33 268.435 294.163 266.768 294.85 264.994C295.618 270.619 297.284 275.953 299.85 280.994C299.517 281.994 299.183 282.994 298.85 283.994C298.183 282.661 297.517 281.327 296.85 279.994C295.517 283.994 295.517 287.994 296.85 291.994C298.482 294.64 300.815 295.973 303.85 295.994C304.007 297.367 303.84 298.701 303.35 299.994C302.215 300.221 301.048 300.554 299.85 300.994C300.978 301.756 302.145 302.423 303.35 302.994C304.5 309.77 303.334 316.104 299.85 321.994C300.269 323.166 300.935 324.166 301.85 324.994C301.348 326.015 300.682 326.182 299.85 325.494C297.371 321.012 296.371 321.012 296.85 325.494C296.405 329.342 295.072 332.842 292.85 335.994C291.925 337.135 291.091 337.135 290.35 335.994C290.039 337.236 290.539 338.236 291.85 338.994C290.517 340.327 289.183 341.661 287.85 342.994C289.039 343.923 290.372 344.256 291.85 343.994C291.929 345.424 291.596 346.758 290.85 347.994C287.663 351.143 284.829 354.143 282.35 356.994C281.936 356.537 281.436 356.203 280.85 355.994C279.788 357.516 279.121 359.182 278.85 360.994C278.517 360.994 278.183 360.994 277.85 360.994C275.858 360.822 274.192 361.489 272.85 362.994C271.536 362.181 270.369 361.181 269.35 359.994C267.71 363.834 266.21 363.834 264.85 359.994C264.183 361.661 263.517 363.327 262.85 364.994C261.964 364.169 261.631 363.169 261.85 361.994C259.85 361.994 257.85 361.994 255.85 361.994C256.158 364.418 255.824 366.751 254.85 368.994C254.183 368.661 253.517 368.327 252.85 367.994C252.861 368.935 252.361 369.602 251.35 369.994C250.012 368.988 248.679 367.988 247.35 366.994C246.696 368.19 246.196 368.19 245.85 366.994C247.039 366.065 248.372 365.732 249.85 365.994C249.431 363.468 249.264 361.135 249.35 358.994C247.113 357.29 244.613 356.29 241.85 355.994C241.929 358.16 242.596 360.16 243.85 361.994C243.517 362.661 243.183 363.327 242.85 363.994C241.141 360.048 239.474 360.048 237.85 363.994C239.456 366.084 239.956 368.418 239.35 370.994C236.743 371.617 234.243 372.284 231.85 372.994C231.85 373.327 231.85 373.661 231.85 373.994C231.517 373.994 231.183 373.994 230.85 373.994C225.832 374.107 220.832 374.441 215.85 374.994C207.172 375.078 198.505 375.411 189.85 375.994C190.007 374.621 189.84 373.287 189.35 371.994C187.733 373.03 187.566 374.197 188.85 375.494C183.537 377.145 178.204 377.312 172.85 375.994C172.063 376.736 171.397 377.569 170.85 378.494C163.603 378.679 156.437 379.179 149.35 379.994C147.952 379.443 146.618 379.11 145.35 378.994C144.355 379.56 143.522 380.227 142.85 380.994C139.74 381.582 136.74 382.249 133.85 382.994C132.517 382.994 131.183 382.994 129.85 382.994C126.124 383.317 122.457 382.983 118.85 381.994C118.373 380.563 117.707 379.23 116.85 377.994C115.517 380.661 114.183 380.661 112.85 377.994C111.415 379.895 109.748 380.228 107.85 378.994C108.517 378.327 109.183 377.661 109.85 376.994C108.517 376.327 107.183 375.661 105.85 374.994C106.517 374.327 107.183 373.661 107.85 372.994C103.753 367.807 99.4197 362.807 94.8497 357.994C93.4557 360.478 91.9557 360.478 90.3497 357.994C89.0647 358.444 87.8977 359.111 86.8497 359.994C86.1827 358.661 85.5167 357.327 84.8497 355.994C84.2307 358.526 83.2307 360.859 81.8497 362.994C83.7507 364.429 84.0837 366.096 82.8497 367.994C80.8667 365.51 78.6997 363.177 76.3497 360.994C75.8667 360.046 75.7007 359.046 75.8497 357.994C74.3907 358.061 73.0577 357.728 71.8497 356.994C69.8357 355.311 68.1697 353.311 66.8497 350.994C63.1147 342.954 60.2807 334.621 58.3497 325.994C56.9817 301.684 56.4817 277.351 56.8497 252.994C58.1187 230.711 58.1187 208.545 56.8497 186.494C57.8597 179.734 58.6927 172.901 59.3497 165.994C59.9947 167.14 60.8277 168.14 61.8497 168.994C59.1827 170.327 59.1827 171.661 61.8497 172.994C59.1827 174.327 59.1827 175.661 61.8497 176.994C59.4257 179.208 60.0927 180.208 63.8497 179.994C63.5507 182.098 63.8837 184.098 64.8497 185.994C64.6627 184.677 65.3297 183.344 66.8497 181.994C67.5167 183.994 68.1827 185.994 68.8497 187.994C69.8297 185.408 70.1627 182.741 69.8497 179.994C68.2057 180.208 66.7057 179.874 65.3497 178.994C65.2827 176.447 64.4487 174.28 62.8497 172.494C65.3407 171.868 65.3407 171.035 62.8497 169.994C62.9797 168.071 63.3137 166.238 63.8497 164.494C60.3167 162.582 60.6497 160.749 64.8497 158.994C63.9737 158.243 62.9737 157.743 61.8497 157.494C62.5767 156.095 63.0767 154.595 63.3497 152.994C63.6827 154.327 64.0167 155.661 64.3497 156.994C64.7737 154.979 65.6077 153.145 66.8497 151.494C66.4057 149.732 65.9057 149.899 65.3497 151.994C65.1177 150.757 64.6177 149.757 63.8497 148.994C64.5167 146.327 65.1827 143.661 65.8497 140.994C70.3847 133.449 75.7177 126.449 81.8497 119.994C83.3507 118.742 85.0177 117.742 86.8497 116.994C87.4667 117.105 87.9667 117.438 88.3497 117.994C89.6117 116.191 91.2787 114.858 93.3497 113.994C93.6047 116.636 92.4387 118.469 89.8497 119.494C92.2527 120.124 94.0867 119.291 95.3497 116.994C94.9557 119.455 93.7887 121.622 91.8497 123.494C95.2457 124.886 95.9127 126.719 93.8497 128.994C94.6237 130.205 95.4567 130.205 96.3497 128.994C97.3057 130.073 98.1387 131.239 98.8497 132.494C97.5937 132.911 96.9267 133.744 96.8497 134.994Z" fill="#1F7644"/>
<path fill-rule="evenodd" clip-rule="evenodd" d="M107.85 104.994C102.506 107.187 97.1716 109.687 91.8496 112.494C90.1096 114.011 88.4436 115.511 86.8496 116.994C85.0176 117.742 83.3506 118.742 81.8496 119.994C81.9146 119.556 81.7486 119.222 81.3496 118.994C76.0206 122.374 71.6876 127.374 68.3496 133.994C67.2566 130.806 65.4236 128.139 62.8496 125.994C61.4116 128.492 61.7456 130.658 63.8496 132.494C62.5626 133.904 61.3956 135.404 60.3496 136.994C60.1706 133.941 59.6706 130.941 58.8496 127.994C57.8836 129.89 57.5506 131.89 57.8496 133.994C56.7976 134.143 55.7976 133.977 54.8496 133.494C55.1826 133.161 55.5166 132.827 55.8496 132.494C54.0666 131.427 53.5666 129.927 54.3496 127.994C54.9056 130.089 55.4056 130.256 55.8496 128.494C54.6716 125.276 53.3376 122.109 51.8496 118.994C52.1576 118.186 52.6576 117.519 53.3496 116.994C54.0166 118.327 54.6826 119.661 55.3496 120.994C55.4896 118.973 55.6566 117.139 55.8496 115.494C54.2236 115.689 52.5566 115.689 50.8496 115.494C51.6016 114.823 51.9356 113.99 51.8496 112.994C53.7996 113.992 55.7996 113.826 57.8496 112.494C57.1826 112.161 56.5166 111.827 55.8496 111.494C64.3276 110.762 72.6606 109.262 80.8496 106.994C82.8496 107.827 84.5156 107.66 85.8496 106.494C93.1786 105.866 100.513 105.366 107.85 104.994Z" fill="#1D5434"/>
<path fill-rule="evenodd" clip-rule="evenodd" d="M245.85 122.994C213.679 122.662 181.679 122.996 149.85 123.994C139.169 123.964 128.502 124.298 117.85 124.994C119.672 123.26 122.005 122.26 124.85 121.994C129.785 122.942 134.785 123.275 139.85 122.994C140.007 121.621 139.84 120.287 139.35 118.994C138.683 120.327 137.683 121.327 136.35 121.994C135.733 121.045 135.899 120.212 136.85 119.494C135.726 119.245 134.726 118.745 133.85 117.994C134.196 116.798 134.696 116.798 135.35 117.994C135.683 116.994 136.017 115.994 136.35 114.994C136.683 115.327 137.017 115.661 137.35 115.994C137.273 114.756 137.439 113.756 137.85 112.994C138.601 113.87 139.101 114.87 139.35 115.994C139.683 115.661 140.017 115.327 140.35 114.994C141.936 115.87 143.436 116.87 144.85 117.994C147.027 116.99 147.361 117.656 145.85 119.994C146.158 120.802 146.658 121.469 147.35 121.994C174.719 122.121 200.386 121.787 224.35 120.994C231.616 121.645 238.782 122.312 245.85 122.994Z" fill="#23754A"/>
<path fill-rule="evenodd" clip-rule="evenodd" d="M149.85 123.994C181.679 122.996 213.679 122.662 245.85 122.994C248.183 122.994 250.517 122.994 252.85 122.994C252.85 123.661 252.85 124.327 252.85 124.994C218.53 124.058 184.196 123.725 149.85 123.994Z" fill="#1D5B3B"/>
<path fill-rule="evenodd" clip-rule="evenodd" d="M149.85 123.994C184.196 123.725 218.53 124.058 252.85 124.994C259.992 126.898 266.659 129.898 272.85 133.994C273.183 134.994 273.85 135.661 274.85 135.994C276.517 137.994 278.183 139.994 279.85 141.994C274.024 137.683 268.024 133.516 261.85 129.494C256.148 127.59 250.315 126.423 244.35 125.994C244.017 126.327 243.683 126.661 243.35 126.994C237.933 126.185 232.433 125.685 226.85 125.494C196.183 124.827 165.517 124.827 134.85 125.494C129.6 126.668 124.266 127.335 118.85 127.494C113.397 128.73 108.063 130.23 102.85 131.994C104.099 130.358 105.766 129.191 107.85 128.494C111.2 127.008 114.534 125.841 117.85 124.994C128.502 124.298 139.169 123.964 149.85 123.994Z" fill="#0D271B"/>
<path fill-rule="evenodd" clip-rule="evenodd" d="M279.85 141.994C283.305 149.333 286.638 156.666 289.85 163.994C289.85 165.327 289.85 166.661 289.85 167.994C289.85 173.994 289.85 179.994 289.85 185.994C289.35 207.992 288.85 229.992 288.35 251.994C286.692 259.014 283.192 264.848 277.85 269.494C270.458 272.338 262.792 274.005 254.85 274.494C229.566 276.25 204.066 278.083 178.35 279.994C178.017 279.661 177.683 279.327 177.35 278.994C174.743 279.617 172.243 280.284 169.85 280.994C168.85 280.994 167.85 280.994 166.85 280.994C159.114 281.001 151.281 281.001 143.35 280.994C133.074 282.525 122.741 283.525 112.35 283.994C106.691 284.208 100.857 283.875 94.8496 282.994C93.1196 282.468 91.7856 281.468 90.8496 279.994C87.0786 275.876 84.0786 271.21 81.8496 265.994C81.0556 260.841 80.3896 255.674 79.8496 250.494C79.9346 249.387 80.2686 248.387 80.8496 247.494C79.5256 234.55 78.8596 221.384 78.8496 207.994C79.0166 194.994 79.1826 181.994 79.3496 168.994C83.1696 154 91.0026 141.667 102.85 131.994C108.063 130.23 113.397 128.73 118.85 127.494C124.266 127.335 129.6 126.668 134.85 125.494C165.517 124.827 196.183 124.827 226.85 125.494C232.433 125.685 237.933 126.185 243.35 126.994C243.683 126.661 244.017 126.327 244.35 125.994C250.315 126.423 256.148 127.59 261.85 129.494C268.024 133.516 274.024 137.683 279.85 141.994Z" fill="#181E1E"/>
<path fill-rule="evenodd" clip-rule="evenodd" d="M112.85 103.994C111.431 104.945 109.765 105.278 107.85 104.994C100.513 105.366 93.1786 105.866 85.8496 106.494C84.5156 107.66 82.8496 107.827 80.8496 106.994C72.6606 109.262 64.3276 110.762 55.8496 111.494C56.5166 111.827 57.1826 112.161 57.8496 112.494C55.7996 113.826 53.7996 113.992 51.8496 112.994C49.8206 114.601 46.8206 115.434 42.8496 115.494C41.5166 116.494 41.5166 117.494 42.8496 118.494C40.0566 120.382 38.0566 122.882 36.8496 125.994C36.1826 125.327 35.5166 124.661 34.8496 123.994C32.8866 126.3 30.7196 128.3 28.3496 129.994C26.5236 129.484 26.3566 128.65 27.8496 127.494C26.0706 127.538 24.4046 128.205 22.8496 129.494C23.9736 129.743 24.9736 130.243 25.8496 130.994C25.6826 131.327 25.5166 131.661 25.3496 131.994C23.3716 130.678 21.8716 131.178 20.8496 133.494C22.0606 134.387 22.0606 135.22 20.8496 135.994C19.4446 136.254 18.1116 136.587 16.8496 136.994C15.9586 137.604 14.9586 137.937 13.8496 137.994C22.6086 124.76 34.6086 115.593 49.8496 110.494C70.6506 106.535 91.6506 104.368 112.85 103.994Z" fill="#195632"/>
<path fill-rule="evenodd" clip-rule="evenodd" d="M255.85 129.994C257.778 131.968 260.111 133.468 262.85 134.494C261.517 135.161 261.517 135.827 262.85 136.494C262.183 136.827 261.517 137.161 260.85 137.494C261.463 139.641 262.129 141.808 262.85 143.994C263.517 142.327 264.183 140.661 264.85 138.994C265.183 139.161 265.517 139.327 265.85 139.494C264.71 142.733 264.71 145.899 265.85 148.994C265.35 149.994 264.85 150.994 264.35 151.994C262.998 150.062 261.165 148.728 258.85 147.994C257.616 146.096 257.949 144.429 259.85 142.994C258.661 142.065 257.328 141.732 255.85 141.994C256.163 139.247 255.83 136.58 254.85 133.994C252.675 138.857 251.675 138.191 251.85 131.994C253.73 132.265 255.063 131.598 255.85 129.994Z" fill="#181E1E"/>
<path fill-rule="evenodd" clip-rule="evenodd" d="M2.84961 228.994C2.06161 209.821 1.39461 190.488 0.849609 170.994C1.87961 158.55 6.21261 147.55 13.8496 137.994C14.9586 137.937 15.9586 137.604 16.8496 136.994C18.9566 137.962 21.2906 138.296 23.8496 137.994C23.8496 136.661 23.8496 135.327 23.8496 133.994C25.2226 134.151 26.5566 133.984 27.8496 133.494C27.5166 133.161 27.1826 132.827 26.8496 132.494C28.5516 130.911 29.8856 131.411 30.8496 133.994C29.0896 135.809 27.4236 136.975 25.8496 137.494C26.3496 138.994 26.8496 140.494 27.3496 141.994C28.0166 140.661 29.0166 139.661 30.3496 138.994C31.6206 142.66 30.4536 145.16 26.8496 146.494C27.5166 146.827 28.1826 147.161 28.8496 147.494C27.2426 148.543 26.5766 150.043 26.8496 151.994C25.8496 151.994 24.8496 151.994 23.8496 151.994C25.2286 156.719 25.0616 161.386 23.3496 165.994C21.0096 172.18 19.6756 172.18 19.3496 165.994C19.1616 172.242 18.6616 178.409 17.8496 184.494C18.6776 185.409 19.6776 186.075 20.8496 186.494C20.0966 187.981 19.2636 188.148 18.3496 186.994C18.0326 188.795 17.3656 189.128 16.3496 187.994C15.8496 188.994 15.3496 189.994 14.8496 190.994C15.7776 192.262 15.9446 193.595 15.3496 194.994C15.0166 194.661 14.6826 194.327 14.3496 193.994C13.9306 195.166 13.2646 196.166 12.3496 196.994C12.1786 191.961 11.6786 186.961 10.8496 181.994C10.6436 186.061 10.3106 190.061 9.84961 193.994C8.79761 194.143 7.79761 193.977 6.84961 193.494C6.77661 188.374 7.10961 183.708 7.84961 179.494C7.15861 178.427 6.65861 177.26 6.34961 175.994C5.42961 178.595 4.76261 181.262 4.34961 183.994C4.01661 178.661 3.68261 173.327 3.34961 167.994C2.68261 175.327 2.68261 182.661 3.34961 189.994C4.34761 187.466 5.18061 187.466 5.84961 189.994C5.52561 192.063 4.69161 192.396 3.34961 190.994C2.84961 203.656 2.68261 216.323 2.84961 228.994Z" fill="#1E5536"/>
<path fill-rule="evenodd" clip-rule="evenodd" d="M39.8496 147.994C41.9596 151.6 42.9596 155.6 42.8496 159.994C43.1416 166.603 42.8086 173.27 41.8496 179.994C40.5276 180.164 39.3606 179.831 38.3496 178.994C38.1006 180.118 37.6006 181.118 36.8496 181.994C36.0186 174.683 35.5186 167.35 35.3496 159.994C35.2896 164.884 34.2896 169.551 32.3496 173.994C31.3306 172.225 31.1636 170.558 31.8496 168.994C30.8276 168.14 29.9946 167.14 29.3496 165.994C29.0166 166.327 28.6826 166.661 28.3496 166.994C28.1826 165.661 28.0166 164.327 27.8496 162.994C29.2826 160.908 30.1156 157.908 30.3496 153.994C30.6826 155.994 31.0166 157.994 31.3496 159.994C32.3496 156.661 33.3496 153.327 34.3496 149.994C35.1266 152.923 34.9596 155.757 33.8496 158.494C35.8926 159.424 37.7256 159.924 39.3496 159.994C39.8486 156.008 40.0156 152.008 39.8496 147.994Z" fill="#1E5536"/>
<path fill-rule="evenodd" clip-rule="evenodd" d="M279.85 141.994C281.82 144.141 283.653 146.474 285.35 148.994C287.547 153.755 289.047 158.755 289.85 163.994C286.638 156.666 283.305 149.333 279.85 141.994Z" fill="#0F291D"/>
<path fill-rule="evenodd" clip-rule="evenodd" d="M63.8496 148.994C64.6176 149.757 65.1176 150.757 65.3496 151.994C65.9056 149.899 66.4056 149.732 66.8496 151.494C65.6076 153.145 64.7736 154.979 64.3496 156.994C64.0166 155.661 63.6826 154.327 63.3496 152.994C63.0766 154.595 62.5766 156.095 61.8496 157.494C62.9736 157.743 63.9736 158.243 64.8496 158.994C60.6496 160.749 60.3166 162.582 63.8496 164.494C63.3136 166.238 62.9796 168.071 62.8496 169.994C65.3406 171.035 65.3406 171.868 62.8496 172.494C64.4486 174.28 65.2826 176.447 65.3496 178.994C66.7056 179.874 68.2056 180.208 69.8496 179.994C70.1626 182.741 69.8296 185.408 68.8496 187.994C68.1826 185.994 67.5166 183.994 66.8496 181.994C65.3296 183.344 64.6626 184.677 64.8496 185.994C63.8836 184.098 63.5506 182.098 63.8496 179.994C60.0926 180.208 59.4256 179.208 61.8496 176.994C59.1826 175.661 59.1826 174.327 61.8496 172.994C59.1826 171.661 59.1826 170.327 61.8496 168.994C60.8276 168.14 59.9946 167.14 59.3496 165.994C58.6926 172.901 57.8596 179.734 56.8496 186.494C58.1186 208.545 58.1186 230.711 56.8496 252.994C55.6866 227.497 55.5196 201.831 56.3496 175.994C57.4436 168.878 58.6096 161.878 59.8496 154.994C61.1826 152.994 62.5166 150.994 63.8496 148.994Z" fill="#1E7644"/>
<path fill-rule="evenodd" clip-rule="evenodd" d="M297.85 134.994C303.59 143.367 307.09 152.701 308.35 162.994C309.182 212.829 309.015 262.496 307.85 311.994C308.017 262.66 307.85 213.326 307.35 163.994C306.503 161.64 305.67 159.306 304.85 156.994C304.85 156.327 304.85 155.661 304.85 154.994C302.173 148.466 299.84 141.8 297.85 134.994Z" fill="#2F6E4D"/>
<path fill-rule="evenodd" clip-rule="evenodd" d="M65.8496 140.994C65.1826 143.661 64.5166 146.327 63.8496 148.994C62.5166 150.994 61.1826 152.994 59.8496 154.994C57.9066 155.572 57.5726 156.572 58.8496 157.994C55.8296 160.862 55.1626 163.862 56.8496 166.994C56.0246 167.88 55.0246 168.213 53.8496 167.994C54.0686 169.169 53.7356 170.169 52.8496 170.994C50.9406 171.842 48.9406 172.176 46.8496 171.994C46.3916 169.1 47.0586 166.6 48.8496 164.494C47.0486 164.177 46.7156 163.51 47.8496 162.494C47.2236 161.744 46.7236 160.91 46.3496 159.994C45.5186 166.686 45.6856 173.352 46.8496 179.994C48.7716 181.786 50.2716 183.786 51.3496 185.994C52.4516 180.764 53.2846 180.764 53.8496 185.994C54.0236 188.187 53.3566 190.021 51.8496 191.494C52.6576 191.802 53.3246 192.302 53.8496 192.994C53.5166 196.994 53.1826 200.994 52.8496 204.994C54.7826 207.589 54.7826 209.922 52.8496 211.994C53.4926 217.192 54.1596 222.359 54.8496 227.494C53.6966 238.584 53.5296 249.751 54.3496 260.994C54.6826 260.661 55.0166 260.327 55.3496 259.994C56.0166 262.994 56.0166 265.994 55.3496 268.994C55.0166 266.661 54.6826 264.327 54.3496 261.994C54.0166 265.994 53.6826 269.994 53.3496 273.994C51.7236 274.348 49.8906 274.348 47.8496 273.994C48.7506 270.253 47.4176 268.253 43.8496 267.994C43.4636 260.096 42.4636 260.096 40.8496 267.994C40.1826 264.661 39.5166 261.327 38.8496 257.994C38.0356 260.26 37.5356 262.594 37.3496 264.994C37.0166 265.327 36.6826 265.661 36.3496 265.994C36.0416 265.186 35.5416 264.519 34.8496 263.994C34.1826 265.994 33.5166 267.994 32.8496 269.994C32.1826 268.661 31.5166 267.327 30.8496 265.994C30.1826 267.994 29.5166 269.994 28.8496 271.994C26.6746 267.131 25.6746 267.797 25.8496 273.994C22.0926 273.78 21.4256 274.78 23.8496 276.994C22.6606 277.923 21.3276 278.256 19.8496 277.994C20.2766 274.706 19.6096 271.706 17.8496 268.994C19.8836 266.895 20.2176 264.562 18.8496 261.994C18.1826 262.661 17.5166 263.327 16.8496 263.994C16.1826 260.661 15.5166 257.327 14.8496 253.994C14.1826 259.994 13.5166 265.994 12.8496 271.994C12.1826 269.327 11.5166 266.661 10.8496 263.994C9.92061 265.183 9.58761 266.516 9.84961 267.994C8.51661 267.994 7.18261 267.994 5.84961 267.994C5.84961 267.327 5.84961 266.661 5.84961 265.994C7.17761 261.206 7.84461 256.04 7.84961 250.494C6.63861 239.934 6.97161 229.767 8.84961 219.994C11.0636 222.418 12.0636 221.751 11.8496 217.994C10.5166 217.994 9.18261 217.994 7.84961 217.994C7.68761 215.967 7.85461 213.967 8.34961 211.994C11.2366 209.742 12.5696 206.742 12.3496 202.994C12.6826 203.327 13.0166 203.661 13.3496 203.994C13.5196 210.022 14.0196 216.022 14.8496 221.994C16.9266 223.482 17.9266 225.482 17.8496 227.994C21.1826 227.994 24.5166 227.994 27.8496 227.994C27.8496 221.327 27.8496 214.661 27.8496 207.994C29.1826 207.994 30.5166 207.994 31.8496 207.994C31.8496 205.994 31.8496 203.994 31.8496 201.994C33.1826 201.994 34.5166 201.994 35.8496 201.994C35.5206 195.957 35.8536 189.957 36.8496 183.994C37.5166 191.327 38.1826 198.661 38.8496 205.994C39.5166 200.661 40.1826 195.327 40.8496 189.994C41.5166 193.327 42.1826 196.661 42.8496 199.994C43.2486 194.233 44.2486 188.733 45.8496 183.494C44.5376 177.234 43.8716 170.734 43.8496 163.994C44.0166 157.661 44.1826 151.327 44.3496 144.994C45.3196 147.938 46.1536 150.938 46.8496 153.994C46.5976 151.049 47.0976 148.049 48.3496 144.994C48.7686 146.166 49.4346 147.166 50.3496 147.994C49.5816 150.99 49.7486 153.657 50.8496 155.994C51.6786 150.692 52.1786 145.358 52.3496 139.994C53.5536 144.21 54.2196 148.543 54.3496 152.994C57.0836 152.132 57.2506 151.299 54.8496 150.494C56.8526 148.405 58.0196 145.905 58.3496 142.994C58.6826 143.994 59.0166 144.994 59.3496 145.994C61.9556 142.443 63.7886 138.443 64.8496 133.994C65.8236 136.237 66.1576 138.57 65.8496 140.994Z" fill="#195632"/>
<path fill-rule="evenodd" clip-rule="evenodd" d="M251.85 197.994C251.517 197.994 251.183 197.994 250.85 197.994C247.736 197.311 244.402 196.829 240.85 196.549C239.386 196.311 237.719 196.191 235.85 196.188C232.37 196.218 229.037 196.458 225.85 196.91C232.309 195.223 239.309 195.043 246.85 196.369C247.973 196.746 249.306 196.986 250.85 197.091C251.602 197.333 251.936 197.634 251.85 197.994Z" fill="#237A49"/>
<path fill-rule="evenodd" clip-rule="evenodd" d="M240.85 193.994C235.269 193.745 229.936 194.745 224.85 196.994C225.183 196.327 225.517 195.661 225.85 194.994C229.037 193.742 232.37 193.076 235.85 192.994C237.719 193.001 239.386 193.334 240.85 193.994Z" fill="#181E1E"/>
<path fill-rule="evenodd" clip-rule="evenodd" d="M240.85 193.994C244.402 194.77 247.736 196.103 250.85 197.994C251.703 200.857 253.37 203.19 255.85 204.994C258.924 210.029 260.424 215.363 260.35 220.994C258.087 218.119 255.254 216.119 251.85 214.994C249.663 213.736 247.33 212.736 244.85 211.994C244.739 211.377 244.406 210.877 243.85 210.494C241.85 210.327 239.85 210.161 237.85 209.994C234.536 209.837 231.536 210.503 228.85 211.994C222.666 214.511 217.666 218.511 213.85 223.994C211.936 220.81 211.27 217.143 211.85 212.994C214.064 205.795 218.397 200.461 224.85 196.994C229.936 194.745 235.269 193.745 240.85 193.994Z" fill="#00FF66"/>
<path fill-rule="evenodd" clip-rule="evenodd" d="M146.85 195.994C140.654 195.57 134.654 196.403 128.85 198.494C121.511 203.658 115.844 210.158 111.85 217.994C114.747 207.258 121.413 199.758 131.85 195.494C137.034 194.678 142.034 194.844 146.85 195.994Z" fill="#0E231A"/>
<path fill-rule="evenodd" clip-rule="evenodd" d="M91.8497 139.994C84.9807 148.054 80.4807 157.388 78.3497 167.994C76.5497 195.312 76.3837 222.645 77.8497 249.994C77.0267 246.517 76.5267 242.85 76.3497 238.994C75.8497 223.664 75.6827 208.331 75.8497 192.994C75.3977 189.82 74.3977 189.487 72.8497 191.994C71.6947 189.048 71.5287 186.048 72.3497 182.994C73.5327 184.225 74.6987 184.225 75.8497 182.994C75.9387 177.884 75.9387 172.717 75.8497 167.494C79.2857 162.55 80.6187 157.217 79.8497 151.494C82.9657 148.822 85.9657 145.322 88.8497 140.994C84.8037 140.528 84.9697 139.194 89.3497 136.994C89.5857 138.613 90.4187 139.613 91.8497 139.994Z" fill="#28714B"/>
<path fill-rule="evenodd" clip-rule="evenodd" d="M157.85 202.994C161.522 209.172 164.522 215.672 166.85 222.494C166.488 223.719 165.988 224.885 165.35 225.994C163.141 224.121 161.308 221.954 159.85 219.494C158.902 219.011 157.902 218.845 156.85 218.994C155.323 219.067 154.323 218.4 153.85 216.994C153.413 215.42 152.413 214.253 150.85 213.494C142.167 212.194 133.834 213.194 125.85 216.494C124.527 217.31 123.861 218.477 123.85 219.994C120.49 222.688 117.49 225.688 114.85 228.994C113.853 229.024 113.186 228.524 112.85 227.494C114.123 211.205 122.956 201.372 139.35 197.994C142.504 198.582 146.004 199.082 149.85 199.494C152.191 201.447 154.857 202.613 157.85 202.994Z" fill="#00FF66"/>
<path fill-rule="evenodd" clip-rule="evenodd" d="M146.85 195.993C151.061 197.591 154.728 199.925 157.85 202.993C154.857 202.612 152.191 201.446 149.85 199.493C146.004 199.081 142.504 198.581 139.35 197.993C122.956 201.371 114.123 211.204 112.85 227.493C113.186 228.523 113.853 229.023 114.85 228.993C114.539 229.971 113.872 230.638 112.85 230.993C111.863 227.725 111.53 224.391 111.85 220.993C111.85 219.993 111.85 218.993 111.85 217.993C115.844 210.157 121.511 203.657 128.85 198.493C134.654 196.402 140.654 195.569 146.85 195.993Z" fill="#00FF66"/>
<path fill-rule="evenodd" clip-rule="evenodd" d="M256.85 202.994C258.648 204.606 260.648 206.106 262.85 207.494C262.517 207.827 262.183 208.161 261.85 208.494C264.43 214.333 265.097 220.333 263.85 226.494C261.887 227.338 260.554 226.838 259.85 224.994C260.85 224.994 261.85 224.994 262.85 224.994C263.491 216.827 261.491 209.494 256.85 202.994Z" fill="#0F261D"/>
<path fill-rule="evenodd" clip-rule="evenodd" d="M289.85 185.994C290.865 208.163 290.865 230.496 289.85 252.994C288.587 257.102 286.921 261.102 284.85 264.994C284.183 264.994 283.85 265.327 283.85 265.994C281.72 267.621 279.72 269.454 277.85 271.494C273.702 272.937 269.702 274.437 265.85 275.994C265.183 275.994 264.517 275.994 263.85 275.994C240.539 277.707 217.206 279.04 193.85 279.994C185.845 280.225 177.845 280.559 169.85 280.994C172.243 280.284 174.743 279.617 177.35 278.994C177.683 279.327 178.017 279.661 178.35 279.994C204.066 278.083 229.566 276.25 254.85 274.494C262.792 274.005 270.458 272.338 277.85 269.494C283.192 264.848 286.692 259.014 288.35 251.994C288.85 229.992 289.35 207.992 289.85 185.994Z" fill="#0E241B"/>
<path fill-rule="evenodd" clip-rule="evenodd" d="M244.85 211.994C240.717 210.768 236.717 210.768 232.85 211.994C231.517 211.994 230.183 211.994 228.85 211.994C231.536 210.503 234.536 209.837 237.85 209.994C239.85 210.161 241.85 210.327 243.85 210.494C244.406 210.877 244.739 211.377 244.85 211.994Z" fill="#181E1E"/>
<path fill-rule="evenodd" clip-rule="evenodd" d="M274.85 135.994C276.665 137.124 278.665 137.79 280.85 137.994C282.716 141.88 285.049 145.547 287.85 148.994C286.741 150.459 287.241 151.459 289.35 151.994C290.232 155.283 290.898 158.617 291.35 161.994C291.658 161.186 292.158 160.519 292.85 159.994C294.159 166.216 294.159 172.383 292.85 178.494C294.475 179.347 294.808 180.347 293.85 181.494C298.943 183.049 298.943 183.882 293.85 183.994C293.528 207.147 293.528 230.48 293.85 253.994C292.85 253.994 291.85 253.994 290.85 253.994C290.666 258.698 288.666 262.364 284.85 264.994C286.921 261.102 288.587 257.102 289.85 252.994C291.351 237.188 292.018 221.188 291.85 204.994C291.683 194.327 291.517 183.661 291.35 172.994C291.152 171.112 290.652 169.446 289.85 167.994C289.85 166.661 289.85 165.327 289.85 163.994C289.047 158.755 287.547 153.755 285.35 148.994C283.653 146.474 281.82 144.141 279.85 141.994C278.183 139.994 276.517 137.994 274.85 135.994Z" fill="#23744A"/>
<path fill-rule="evenodd" clip-rule="evenodd" d="M289.85 167.994C290.652 169.446 291.152 171.112 291.35 172.994C291.517 183.661 291.683 194.327 291.85 204.994C292.018 221.188 291.351 237.188 289.85 252.994C290.865 230.496 290.865 208.163 289.85 185.994C289.85 179.994 289.85 173.994 289.85 167.994Z" fill="#1F7644"/>
<path fill-rule="evenodd" clip-rule="evenodd" d="M153.85 216.994C151.344 215.744 148.677 215.078 145.85 214.994C139.918 213.294 134.252 213.961 128.85 216.994C126.946 217.232 125.612 218.232 124.85 219.994C124.517 219.994 124.183 219.994 123.85 219.994C123.861 218.477 124.527 217.31 125.85 216.494C133.834 213.194 142.167 212.194 150.85 213.494C152.413 214.253 153.413 215.42 153.85 216.994Z" fill="#00FF66"/>
<path fill-rule="evenodd" clip-rule="evenodd" d="M145.85 214.994C139.973 214.707 134.306 215.374 128.85 216.994C134.252 213.961 139.918 213.294 145.85 214.994Z" fill="#181E1E"/>
<path fill-rule="evenodd" clip-rule="evenodd" d="M232.85 211.994C236.717 210.768 240.717 210.768 244.85 211.994C247.33 212.736 249.663 213.736 251.85 214.994C254.92 218.058 257.587 221.391 259.85 224.994C255.341 220.668 250.341 216.835 244.85 213.494C240.932 212.338 236.932 211.838 232.85 211.994Z" fill="#181E1E"/>
<path fill-rule="evenodd" clip-rule="evenodd" d="M75.8496 192.994C75.6826 208.331 75.8496 223.664 76.3496 238.994C76.5266 242.85 77.0266 246.517 77.8496 249.994C77.4086 260.794 80.7416 270.128 87.8496 277.994C85.8896 277.356 84.0566 277.356 82.3496 277.994C81.7046 276.848 80.8716 275.848 79.8496 274.994C80.2806 274.201 80.6146 273.367 80.8496 272.494C79.8776 270.383 79.0446 268.216 78.3496 265.994C77.2396 264.457 75.7396 263.791 73.8496 263.994C74.1486 266.098 73.8156 268.098 72.8496 269.994C72.0216 269.079 71.0216 268.413 69.8496 267.994C68.0246 269.145 66.0246 269.812 63.8496 269.994C63.8496 264.661 63.8496 259.327 63.8496 253.994C65.1826 253.994 66.5166 253.994 67.8496 253.994C66.5166 249.994 65.1826 245.994 63.8496 241.994C65.1826 241.994 66.5166 241.994 67.8496 241.994C67.6356 238.237 68.6356 237.57 70.8496 239.994C71.5166 232.661 72.1826 225.327 72.8496 217.994C73.6576 219.917 74.1576 221.917 74.3496 223.994C74.5196 213.486 75.0196 203.153 75.8496 192.994Z" fill="#20754A"/>
<path fill-rule="evenodd" clip-rule="evenodd" d="M228.85 211.994C225.662 214.524 222.495 217.19 219.35 219.994C217.477 221.884 216.644 223.884 216.85 225.994C215.823 224.703 214.823 224.703 213.85 225.994C213.85 225.327 213.85 224.661 213.85 223.994C217.666 218.511 222.666 214.511 228.85 211.994Z" fill="#0E2219"/>
<path fill-rule="evenodd" clip-rule="evenodd" d="M250.85 197.994C251.183 197.994 251.517 197.994 251.85 197.994C253.183 199.994 254.85 201.661 256.85 202.994C261.491 209.494 263.491 216.827 262.85 224.994C261.85 224.994 260.85 224.994 259.85 224.994C257.587 221.391 254.92 218.058 251.85 214.994C255.254 216.119 258.087 218.119 260.35 220.994C260.424 215.363 258.924 210.029 255.85 204.994C253.37 203.19 251.703 200.857 250.85 197.994Z" fill="#00FF66"/>
<path fill-rule="evenodd" clip-rule="evenodd" d="M211.85 212.994C211.27 217.143 211.936 220.81 213.85 223.994C213.85 224.661 213.85 225.327 213.85 225.994C212.517 225.994 211.183 225.994 209.85 225.994C209.63 221.394 210.296 217.061 211.85 212.994Z" fill="#00FF66"/>
<path fill-rule="evenodd" clip-rule="evenodd" d="M157.85 202.994C164.525 208.181 167.858 215.014 167.85 223.494C167.517 225.661 167.183 227.827 166.85 229.994C163.523 226.333 160.19 222.666 156.85 218.994C157.902 218.845 158.902 219.011 159.85 219.494C161.308 221.954 163.141 224.121 165.35 225.994C165.988 224.885 166.488 223.719 166.85 222.494C164.522 215.672 161.522 209.172 157.85 202.994Z" fill="#00FF66"/>
<path fill-rule="evenodd" clip-rule="evenodd" d="M123.85 219.994C124.183 219.994 124.517 219.994 124.85 219.994C122.693 222.965 120.526 225.965 118.35 228.994C116.961 230.721 115.294 232.055 113.35 232.994C112.578 232.849 111.911 232.516 111.35 231.994C110.54 228.136 110.707 224.47 111.85 220.994C111.53 224.392 111.863 227.726 112.85 230.994C113.872 230.639 114.539 229.972 114.85 228.994C117.49 225.688 120.49 222.688 123.85 219.994Z" fill="#00FF66"/>
<path fill-rule="evenodd" clip-rule="evenodd" d="M0.849619 170.994C1.39462 190.488 2.06162 209.821 2.84962 228.994C3.60462 224.701 4.27162 219.035 4.84962 211.994C5.84962 229.982 6.18262 247.982 5.84962 265.994C5.84962 266.661 5.84962 267.327 5.84962 267.994C6.11862 269.923 5.61862 271.589 4.34962 272.994C4.01662 260.327 3.68262 247.661 3.34962 234.994C2.90462 261.307 2.73862 287.474 2.84962 313.494C4.11462 319.43 5.44762 325.263 6.84962 330.994C9.29162 330.613 9.95862 331.28 8.84962 332.994C11.0286 336.352 12.3616 340.019 12.8496 343.994C6.79062 335.337 2.95662 325.67 1.34962 314.994C-0.264381 266.834 -0.430381 218.834 0.849619 170.994Z" fill="#195632"/>
<path fill-rule="evenodd" clip-rule="evenodd" d="M59.8496 154.994C58.6096 161.878 57.4436 168.878 56.3496 175.994C55.5196 201.831 55.6866 227.497 56.8496 252.994C56.4816 277.351 56.9816 301.684 58.3496 325.994C60.2806 334.621 63.1146 342.954 66.8496 350.994C65.4646 349.92 64.2986 348.587 63.3496 346.994C62.3386 347.831 61.1716 348.164 59.8496 347.994C60.0726 350.608 58.9056 352.275 56.3496 352.994C55.6046 354.697 54.7706 356.364 53.8496 357.994C54.5166 359.327 55.1826 360.661 55.8496 361.994C55.1586 364.385 54.1586 364.385 52.8496 361.994C52.0626 362.736 51.3966 363.569 50.8496 364.494C51.8666 365.543 52.0336 366.71 51.3496 367.994C50.4266 366.735 49.5926 365.402 48.8496 363.994C48.1826 364.661 47.5166 365.327 46.8496 365.994C45.9676 364.734 44.9676 363.568 43.8496 362.494C45.8496 362.161 47.8496 361.827 49.8496 361.494C50.4306 359.922 50.4306 358.089 49.8496 355.994C48.8716 356.471 48.0386 357.137 47.3496 357.994C47.0166 356.661 46.6826 355.327 46.3496 353.994C45.3756 356.372 44.7086 356.038 44.3496 352.994C43.6826 359.661 43.0166 359.661 42.3496 352.994C41.4356 356.679 40.7686 356.346 40.3496 351.994C38.9816 353.487 38.8146 354.987 39.8496 356.494C37.4826 356.868 35.6496 358.035 34.3496 359.994C33.0886 359.735 32.0886 359.068 31.3496 357.994C31.0166 358.327 30.6826 358.661 30.3496 358.994C28.0066 356.078 25.1726 353.912 21.8496 352.494C23.3636 351.055 23.6966 349.555 22.8496 347.994C22.0986 348.87 21.5986 349.87 21.3496 350.994C20.6106 349.273 19.7766 347.607 18.8496 345.994C18.2636 346.203 17.7636 346.537 17.3496 346.994C17.8476 344.967 17.6806 342.967 16.8496 340.994C15.9636 341.819 15.6306 342.819 15.8496 343.994C14.8496 343.994 13.8496 343.994 12.8496 343.994C12.3616 340.019 11.0286 336.352 8.84963 332.994C9.95863 331.28 9.29163 330.613 6.84963 330.994C5.44763 325.263 4.11463 319.43 2.84963 313.494C2.73863 287.474 2.90463 261.307 3.34963 234.994C3.68263 247.661 4.01663 260.327 4.34963 272.994C5.61863 271.589 6.11863 269.923 5.84963 267.994C7.18263 267.994 8.51663 267.994 9.84963 267.994C9.58763 266.516 9.92063 265.183 10.8496 263.994C11.5166 266.661 12.1826 269.327 12.8496 271.994C13.5166 265.994 14.1826 259.994 14.8496 253.994C15.5166 257.327 16.1826 260.661 16.8496 263.994C17.5166 263.327 18.1826 262.661 18.8496 261.994C20.2176 264.562 19.8836 266.895 17.8496 268.994C19.6096 271.706 20.2766 274.706 19.8496 277.994C21.3276 278.256 22.6606 277.923 23.8496 276.994C21.4256 274.78 22.0926 273.78 25.8496 273.994C25.6746 267.797 26.6746 267.131 28.8496 271.994C29.5166 269.994 30.1826 267.994 30.8496 265.994C31.5166 267.327 32.1826 268.661 32.8496 269.994C33.5166 267.994 34.1826 265.994 34.8496 263.994C35.5416 264.519 36.0416 265.186 36.3496 265.994C36.6826 265.661 37.0166 265.327 37.3496 264.994C37.5356 262.594 38.0356 260.26 38.8496 257.994C39.5166 261.327 40.1826 264.661 40.8496 267.994C42.4636 260.096 43.4636 260.096 43.8496 267.994C47.4176 268.253 48.7506 270.253 47.8496 273.994C49.8906 274.348 51.7236 274.348 53.3496 273.994C53.6826 269.994 54.0166 265.994 54.3496 261.994C54.6826 264.327 55.0166 266.661 55.3496 268.994C56.0166 265.994 56.0166 262.994 55.3496 259.994C55.0166 260.327 54.6826 260.661 54.3496 260.994C53.5296 249.751 53.6966 238.584 54.8496 227.494C54.1596 222.359 53.4926 217.192 52.8496 211.994C54.7826 209.922 54.7826 207.589 52.8496 204.994C53.1826 200.994 53.5166 196.994 53.8496 192.994C53.3246 192.302 52.6576 191.802 51.8496 191.494C53.3566 190.021 54.0236 188.187 53.8496 185.994C53.2846 180.764 52.4516 180.764 51.3496 185.994C50.2716 183.786 48.7716 181.786 46.8496 179.994C45.6856 173.352 45.5186 166.686 46.3496 159.994C46.7236 160.91 47.2236 161.744 47.8496 162.494C46.7156 163.51 47.0486 164.177 48.8496 164.494C47.0586 166.6 46.3916 169.1 46.8496 171.994C48.9406 172.176 50.9406 171.842 52.8496 170.994C53.7356 170.169 54.0686 169.169 53.8496 167.994C55.0246 168.213 56.0246 167.88 56.8496 166.994C55.1626 163.862 55.8296 160.862 58.8496 157.994C57.5726 156.572 57.9066 155.572 59.8496 154.994Z" fill="#195632"/>
<path fill-rule="evenodd" clip-rule="evenodd" d="M304.85 156.994C305.67 159.306 306.503 161.64 307.35 163.994C307.85 213.326 308.017 262.66 307.85 311.994C305.307 332.538 295.64 348.872 278.85 360.994C279.121 359.182 279.788 357.516 280.85 355.994C281.436 356.203 281.936 356.537 282.35 356.994C284.829 354.143 287.663 351.143 290.85 347.994C291.596 346.758 291.929 345.424 291.85 343.994C290.372 344.256 289.039 343.923 287.85 342.994C289.183 341.661 290.517 340.327 291.85 338.994C290.539 338.236 290.039 337.236 290.35 335.994C291.091 337.135 291.925 337.135 292.85 335.994C295.072 332.842 296.405 329.342 296.85 325.494C296.371 321.012 297.371 321.012 299.85 325.494C300.682 326.182 301.348 326.015 301.85 324.994C300.935 324.166 300.269 323.166 299.85 321.994C303.334 316.104 304.5 309.77 303.35 302.994C302.145 302.423 300.978 301.756 299.85 300.994C301.048 300.554 302.215 300.221 303.35 299.994C303.84 298.701 304.007 297.367 303.85 295.994C300.815 295.973 298.482 294.64 296.85 291.994C295.517 287.994 295.517 283.994 296.85 279.994C297.517 281.327 298.183 282.661 298.85 283.994C299.183 282.994 299.517 281.994 299.85 280.994C297.284 275.953 295.618 270.619 294.85 264.994C294.163 266.768 293.33 268.435 292.35 269.994C291.523 265.953 291.69 261.953 292.85 257.994C293.517 258.661 294.183 259.327 294.85 259.994C295.564 257.467 296.23 254.967 296.85 252.494C296.393 252.08 296.059 251.58 295.85 250.994C297.38 249.268 298.38 247.268 298.85 244.994C297.951 241.354 297.617 237.854 297.85 234.494C299.661 235.201 301.661 235.701 303.85 235.994C303.85 233.327 303.85 230.661 303.85 227.994C301.858 227.822 300.192 228.489 298.85 229.994C298.231 227.462 297.231 225.129 295.85 222.994C297.066 220.532 297.732 217.865 297.85 214.994C297.369 210.963 296.703 206.963 295.85 202.994C296.039 197.086 297.039 196.752 298.85 201.994C299.379 204.751 300.379 207.251 301.85 209.494C299.988 212.643 299.321 216.143 299.85 219.994C301.183 219.994 302.517 219.994 303.85 219.994C303.85 211.994 303.85 203.994 303.85 195.994C302.517 195.994 301.183 195.994 299.85 195.994C299.85 193.327 299.85 190.661 299.85 187.994C294.517 187.327 294.517 186.661 299.85 185.994C300.17 182.596 299.837 179.262 298.85 175.994C298.183 177.327 297.517 178.661 296.85 179.994C295.87 177.408 295.537 174.741 295.85 171.994C297.183 171.994 298.517 171.994 299.85 171.994C300.292 166.8 301.292 166.8 302.85 171.994C303.517 166.843 304.184 161.843 304.85 156.994Z" fill="#20754A"/>
<path fill-rule="evenodd" clip-rule="evenodd" d="M102.85 131.994C91.0025 141.667 83.1695 154 79.3495 168.994C79.1825 181.994 79.0165 194.994 78.8495 207.994C78.8595 221.384 79.5255 234.55 80.8495 247.494C80.2685 248.387 79.9345 249.387 79.8495 250.494C80.3895 255.674 81.0555 260.841 81.8495 265.994C84.0785 271.21 87.0785 275.876 90.8495 279.994C89.7405 279.937 88.7405 279.604 87.8495 278.994C87.8495 278.661 87.8495 278.327 87.8495 277.994C80.7415 270.128 77.4085 260.794 77.8495 249.994C76.3835 222.645 76.5495 195.312 78.3495 167.994C80.4805 157.388 84.9805 148.054 91.8495 139.994C93.8495 138.661 95.5165 136.994 96.8495 134.994C98.8665 133.965 100.867 132.965 102.85 131.994Z" fill="#181E1E"/>
<path fill-rule="evenodd" clip-rule="evenodd" d="M283.85 265.994C281.58 269.282 279.246 272.616 276.85 275.994C273.216 274.983 269.549 274.983 265.85 275.994C269.702 274.437 273.702 272.937 277.85 271.494C279.72 269.454 281.72 267.621 283.85 265.994Z" fill="#256E48"/>
<path fill-rule="evenodd" clip-rule="evenodd" d="M263.85 275.994C260.564 276.814 258.231 278.814 256.85 281.994C256.183 281.327 255.517 280.661 254.85 279.994C254.183 281.327 253.517 282.661 252.85 283.994C252.158 283.469 251.658 282.802 251.35 281.994C250.661 282.851 249.828 283.517 248.85 283.994C247.183 282.827 245.517 281.661 243.85 280.494C246.349 280.611 249.015 280.278 251.85 279.494C253.046 278.84 253.046 278.34 251.85 277.994C245.901 278.786 239.901 279.286 233.85 279.494C231.936 280.614 230.102 280.78 228.35 279.994C220.219 280.783 212.052 281.283 203.85 281.494C202.85 281.827 201.85 282.161 200.85 282.494C202.046 283.148 202.046 283.648 200.85 283.994C199.409 283.19 197.909 282.523 196.35 281.994C190.664 283.482 185.331 283.816 180.35 282.994C166.896 284.492 153.396 285.326 139.85 285.494C138.584 285.803 137.417 286.303 136.35 286.994C136.017 286.661 135.683 286.327 135.35 285.994C124.017 286.661 112.683 287.327 101.35 287.994C98.8936 286.283 96.2266 284.95 93.3496 283.994C93.0166 284.661 92.6826 285.327 92.3496 285.994C90.6806 283.751 89.1806 281.418 87.8496 278.994C88.7406 279.604 89.7406 279.937 90.8496 279.994C91.7856 281.468 93.1196 282.468 94.8496 282.994C99.8176 285.253 105.151 286.253 110.85 285.994C120.796 284.581 130.796 283.914 140.85 283.994C147.062 283.971 153.062 283.304 158.85 281.994C161.517 281.994 164.183 281.994 166.85 281.994C176.057 282.115 185.057 281.448 193.85 279.994C217.206 279.04 240.539 277.707 263.85 275.994Z" fill="#267149"/>
<path fill-rule="evenodd" clip-rule="evenodd" d="M158.85 281.994C153.062 283.304 147.062 283.971 140.85 283.994C146.624 282.548 152.624 281.882 158.85 281.994Z" fill="#17402A"/>
<path fill-rule="evenodd" clip-rule="evenodd" d="M166.85 280.994C166.85 281.327 166.85 281.661 166.85 281.994C164.183 281.994 161.517 281.994 158.85 281.994C152.624 281.882 146.624 282.548 140.85 283.994C130.796 283.914 120.796 284.581 110.85 285.994C105.151 286.253 99.8176 285.253 94.8496 282.994C100.857 283.875 106.691 284.208 112.35 283.994C122.741 283.525 133.074 282.525 143.35 280.994C151.281 281.001 159.114 281.001 166.85 280.994Z" fill="#0F261C"/>
<path fill-rule="evenodd" clip-rule="evenodd" d="M193.85 279.994C185.057 281.448 176.057 282.115 166.85 281.994C166.85 281.661 166.85 281.327 166.85 280.994C167.85 280.994 168.85 280.994 169.85 280.994C177.845 280.559 185.845 280.225 193.85 279.994Z" fill="#0E3320"/>
<path fill-rule="evenodd" clip-rule="evenodd" d="M234.85 314.994C236.607 308.094 234.274 305.761 227.85 307.994C228.502 306.769 229.669 306.102 231.35 305.994C234.703 305.683 236.537 307.183 236.85 310.494C236.825 312.37 236.159 313.87 234.85 314.994Z" fill="#0D271A"/>
<path fill-rule="evenodd" clip-rule="evenodd" d="M234.85 314.994C228.437 322.894 220.437 328.727 210.85 332.494C207.246 333.648 203.579 334.481 199.85 334.994C191.821 335.15 183.821 334.817 175.85 333.994C169.461 332.59 163.461 330.257 157.85 326.994C154.829 324.64 152.162 321.973 149.85 318.994C149.036 314.985 150.536 312.318 154.35 310.994C158.645 314.823 163.478 317.49 168.85 318.994C174.4 320.798 180.067 322.132 185.85 322.994C191.261 324.351 196.595 324.018 201.85 321.994C208.242 320.629 213.909 317.962 218.85 313.994C219.85 313.327 220.85 312.661 221.85 311.994C223.596 310.242 225.596 308.909 227.85 307.994C234.274 305.761 236.607 308.094 234.85 314.994Z" fill="#16201D"/>
<path fill-rule="evenodd" clip-rule="evenodd" d="M160.85 312.994C159.154 312.809 157.821 311.975 156.85 310.494C150.197 309.97 147.863 312.803 149.85 318.994C152.162 321.973 154.829 324.64 157.85 326.994C154.08 326.078 150.914 324.078 148.35 320.994C148.101 322.118 147.601 323.118 146.85 323.994C145.664 318.741 146.664 313.574 149.85 308.494C155.067 306.733 158.734 308.233 160.85 312.994Z" fill="#257149"/>
<path fill-rule="evenodd" clip-rule="evenodd" d="M175.85 334.994C183.991 336.246 191.991 336.246 199.85 334.994C203.579 334.481 207.246 333.648 210.85 332.494C220.437 328.727 228.437 322.894 234.85 314.994C236.159 313.87 236.825 312.37 236.85 310.494C236.537 307.183 234.703 305.683 231.35 305.994C229.669 306.102 228.502 306.769 227.85 307.994C225.596 308.909 223.596 310.242 221.85 311.994C221.936 310.998 221.602 310.165 220.85 309.494C223.38 308.299 225.38 306.466 226.85 303.994C228.192 305.396 229.026 305.063 229.35 302.994C230.463 304.205 231.63 304.205 232.85 302.994C234.465 303.648 236.132 304.148 237.85 304.494C236.892 305.641 237.225 306.641 238.85 307.494C238.068 310.234 237.568 313.068 237.35 315.994C225.345 329.008 211.178 336.175 194.85 337.494C199.275 343.262 203.942 343.428 208.85 337.994C209.779 339.183 210.112 340.516 209.85 341.994C212.597 342.307 215.264 341.974 217.85 340.994C220.021 336.65 222.687 332.65 225.85 328.994C227.682 328.246 229.349 327.246 230.85 325.994C232.192 327.396 233.026 327.063 233.35 324.994C233.764 325.451 234.264 325.785 234.85 325.994C235.704 324.972 236.704 324.139 237.85 323.494C236.578 322.248 236.245 321.081 236.85 319.994C239.159 322.481 241.826 324.481 244.85 325.994C245.517 325.327 246.183 324.661 246.85 323.994C248.937 326.239 250.271 328.906 250.85 331.994C251.658 330.071 252.158 328.071 252.35 325.994C252.72 328.158 253.554 330.158 254.85 331.994C255.807 329.576 257.141 327.41 258.85 325.494C258.517 325.161 258.183 324.827 257.85 324.494C258.658 324.186 259.325 323.686 259.85 322.994C258.935 322.166 258.269 321.166 257.85 319.994C259.047 317.405 260.047 314.738 260.85 311.994C261.517 315.327 262.183 318.661 262.85 321.994C263.985 322.597 264.985 322.93 265.85 322.994C263.893 326.062 263.393 329.395 264.35 332.994C265.004 331.798 265.504 331.798 265.85 332.994C263.416 336.289 261.749 339.956 260.85 343.994C260.183 344.661 259.517 345.327 258.85 345.994C258.201 343.87 257.367 341.87 256.35 339.994C255.86 341.287 255.693 342.621 255.85 343.994C253.85 343.994 251.85 343.994 249.85 343.994C249.85 345.327 249.85 346.661 249.85 347.994C244.807 348.738 240.807 347.071 237.85 342.994C233.448 341.344 229.782 342.344 226.85 345.994C225.508 344.489 223.842 343.822 221.85 343.994C221.85 345.994 221.85 347.994 221.85 349.994C220.517 349.994 219.183 349.994 217.85 349.994C217.85 351.327 217.85 352.661 217.85 353.994C216.559 355.272 214.559 355.939 211.85 355.994C211.85 354.661 211.85 353.327 211.85 351.994C209.858 352.166 208.192 351.499 206.85 349.994C203.842 351.611 200.675 352.944 197.35 353.994C194.334 353.555 191.168 353.555 187.85 353.994C188.007 352.621 187.84 351.287 187.35 349.994C185.68 355.188 184.18 355.188 182.85 349.994C181.884 351.89 181.551 353.89 181.85 355.994C178.167 355.547 174.5 354.881 170.85 353.994C168.635 354.164 166.635 354.831 164.85 355.994C164.183 355.327 163.517 354.661 162.85 353.994C161.211 347.401 161.711 341.068 164.35 334.994C165.533 333.763 166.699 333.763 167.85 334.994C167.183 335.661 166.517 336.327 165.85 336.994C168.045 338.263 170.211 338.263 172.35 336.994C175.929 339.01 179.763 340.343 183.85 340.994C184.85 341.994 185.85 342.994 186.85 343.994C188.2 342.544 189.866 341.877 191.85 341.994C192.123 340.043 191.457 338.543 189.85 337.494C185.517 337.161 181.183 336.827 176.85 336.494C176.294 336.111 175.961 335.611 175.85 334.994Z" fill="#1F754A"/>
<path fill-rule="evenodd" clip-rule="evenodd" d="M218.85 313.994C213.909 317.962 208.242 320.629 201.85 321.994C196.537 322.592 191.204 322.925 185.85 322.994C180.067 322.132 174.4 320.798 168.85 318.994C168.85 318.661 168.85 318.327 168.85 317.994C173.495 318.296 177.995 319.296 182.35 320.994C187.53 320.387 192.53 320.387 197.35 320.994C197.683 319.994 198.017 318.994 198.35 317.994C199.137 319.205 199.804 320.205 200.35 320.994C201.688 319.988 203.021 318.988 204.35 317.994C205.844 319.241 207.344 319.241 208.85 317.994C207.721 315.965 208.221 315.631 210.35 316.994C212.545 314.457 215.378 313.457 218.85 313.994Z" fill="#1F7644"/>
<path fill-rule="evenodd" clip-rule="evenodd" d="M160.85 312.994C162.979 315.444 165.646 317.111 168.85 317.994C168.85 318.327 168.85 318.661 168.85 318.994C163.478 317.49 158.645 314.823 154.35 310.994C150.536 312.318 149.036 314.985 149.85 318.994C147.863 312.803 150.197 309.97 156.85 310.494C157.821 311.975 159.154 312.809 160.85 312.994Z" fill="#0F251A"/>
<path fill-rule="evenodd" clip-rule="evenodd" d="M201.85 321.994C196.595 324.018 191.261 324.351 185.85 322.994C191.204 322.925 196.537 322.592 201.85 321.994Z" fill="#1F7644"/>
<path fill-rule="evenodd" clip-rule="evenodd" d="M175.85 334.994C175.85 334.661 175.85 334.327 175.85 333.994C183.821 334.817 191.821 335.15 199.85 334.994C191.991 336.246 183.991 336.246 175.85 334.994Z" fill="#1F7644"/>
<path fill-rule="evenodd" clip-rule="evenodd" d="M129.85 382.994C121.85 384.327 113.85 384.327 105.85 382.994C105.292 381.704 104.292 380.871 102.85 380.494C99.8206 379.955 96.8206 379.288 93.8496 378.494C90.0256 375.415 86.0256 372.582 81.8496 369.994C78.8936 366.536 75.7266 363.202 72.3496 359.994C71.8666 359.046 71.7006 358.046 71.8496 356.994C73.0576 357.728 74.3906 358.061 75.8496 357.994C75.7006 359.046 75.8666 360.046 76.3496 360.994C78.6996 363.177 80.8666 365.51 82.8496 367.994C84.0836 366.096 83.7506 364.429 81.8496 362.994C83.2306 360.859 84.2306 358.526 84.8496 355.994C85.5166 357.327 86.1826 358.661 86.8496 359.994C87.8976 359.111 89.0646 358.444 90.3496 357.994C91.9556 360.478 93.4556 360.478 94.8496 357.994C99.4196 362.807 103.753 367.807 107.85 372.994C107.183 373.661 106.517 374.327 105.85 374.994C107.183 375.661 108.517 376.327 109.85 376.994C109.183 377.661 108.517 378.327 107.85 378.994C109.748 380.228 111.415 379.895 112.85 377.994C114.183 380.661 115.517 380.661 116.85 377.994C117.707 379.23 118.373 380.563 118.85 381.994C122.457 382.983 126.124 383.317 129.85 382.994Z" fill="#1F7644"/>
<path fill-rule="evenodd" clip-rule="evenodd" d="M277.85 360.994C269.6 367.411 260.266 371.078 249.85 371.994C243.841 372.195 237.841 372.528 231.85 372.994C234.243 372.284 236.743 371.617 239.35 370.994C239.956 368.418 239.456 366.084 237.85 363.994C239.474 360.048 241.141 360.048 242.85 363.994C243.183 363.327 243.517 362.661 243.85 361.994C242.596 360.16 241.929 358.16 241.85 355.994C244.613 356.29 247.113 357.29 249.35 358.994C249.264 361.135 249.431 363.468 249.85 365.994C248.372 365.732 247.039 366.065 245.85 366.994C246.196 368.19 246.696 368.19 247.35 366.994C248.679 367.988 250.012 368.988 251.35 369.994C252.361 369.602 252.861 368.935 252.85 367.994C253.517 368.327 254.183 368.661 254.85 368.994C255.824 366.751 256.158 364.418 255.85 361.994C257.85 361.994 259.85 361.994 261.85 361.994C261.631 363.169 261.964 364.169 262.85 364.994C263.517 363.327 264.183 361.661 264.85 359.994C266.21 363.834 267.71 363.834 269.35 359.994C270.369 361.181 271.536 362.181 272.85 362.994C274.192 361.489 275.858 360.822 277.85 360.994Z" fill="#21744A"/>
<path fill-rule="evenodd" clip-rule="evenodd" d="M66.8496 350.994C68.1696 353.311 69.8356 355.311 71.8496 356.994C71.7006 358.046 71.8666 359.046 72.3496 359.994C75.7266 363.202 78.8936 366.536 81.8496 369.994C86.0256 372.582 90.0256 375.415 93.8496 378.494C96.8206 379.288 99.8206 379.955 102.85 380.494C104.292 380.871 105.292 381.704 105.85 382.994C84.3606 378.788 63.0266 373.955 41.8496 368.494C29.8886 363.033 20.2226 354.866 12.8496 343.994C13.8496 343.994 14.8496 343.994 15.8496 343.994C15.6306 342.819 15.9636 341.819 16.8496 340.994C17.6806 342.967 17.8476 344.967 17.3496 346.994C17.7636 346.537 18.2636 346.203 18.8496 345.994C19.7766 347.607 20.6106 349.273 21.3496 350.994C21.5986 349.87 22.0986 348.87 22.8496 347.994C23.6966 349.555 23.3636 351.055 21.8496 352.494C25.1726 353.912 28.0066 356.078 30.3496 358.994C30.6826 358.661 31.0166 358.327 31.3496 357.994C32.0886 359.068 33.0886 359.735 34.3496 359.994C35.6496 358.035 37.4826 356.868 39.8496 356.494C38.8146 354.987 38.9816 353.487 40.3496 351.994C40.7686 356.346 41.4356 356.679 42.3496 352.994C43.0166 359.661 43.6826 359.661 44.3496 352.994C44.7086 356.038 45.3756 356.372 46.3496 353.994C46.6826 355.327 47.0166 356.661 47.3496 357.994C48.0386 357.137 48.8716 356.471 49.8496 355.994C50.4306 358.089 50.4306 359.922 49.8496 361.494C47.8496 361.827 45.8496 362.161 43.8496 362.494C44.9676 363.568 45.9676 364.734 46.8496 365.994C47.5166 365.327 48.1826 364.661 48.8496 363.994C49.5926 365.402 50.4266 366.735 51.3496 367.994C52.0336 366.71 51.8666 365.543 50.8496 364.494C51.3966 363.569 52.0626 362.736 52.8496 361.994C54.1586 364.385 55.1586 364.385 55.8496 361.994C55.1826 360.661 54.5166 359.327 53.8496 357.994C54.7706 356.364 55.6046 354.697 56.3496 352.994C58.9056 352.275 60.0726 350.608 59.8496 347.994C61.1716 348.164 62.3386 347.831 63.3496 346.994C64.2986 348.587 65.4646 349.92 66.8496 350.994Z" fill="#195632"/>
<path fill-rule="evenodd" clip-rule="evenodd" d="M249.85 371.994C244.062 373.304 238.062 373.971 231.85 373.994C231.85 373.661 231.85 373.327 231.85 372.994C237.841 372.528 243.841 372.195 249.85 371.994Z" fill="#1F7644"/>
<path fill-rule="evenodd" clip-rule="evenodd" d="M230.85 373.994C226.1 375.525 221.1 376.192 215.85 375.994C215.85 375.661 215.85 375.327 215.85 374.994C220.832 374.441 225.832 374.107 230.85 373.994Z" fill="#1F7644"/>
<path fill-rule="evenodd" clip-rule="evenodd" d="M215.85 374.994C215.85 375.327 215.85 375.661 215.85 375.994C194.187 377.716 172.521 379.383 150.85 380.994C148.183 380.994 145.517 380.994 142.85 380.994C143.522 380.227 144.355 379.56 145.35 378.994C146.618 379.11 147.952 379.443 149.35 379.994C156.437 379.179 163.603 378.679 170.85 378.494C171.397 377.569 172.063 376.736 172.85 375.994C178.204 377.312 183.537 377.145 188.85 375.494C187.566 374.197 187.733 373.03 189.35 371.994C189.84 373.287 190.007 374.621 189.85 375.994C198.505 375.411 207.172 375.078 215.85 374.994Z" fill="#276B45"/>
<path fill-rule="evenodd" clip-rule="evenodd" d="M142.85 380.994C145.517 380.994 148.183 380.994 150.85 380.994C145.421 382.506 139.754 383.173 133.85 382.994C136.74 382.249 139.74 381.582 142.85 380.994Z" fill="#0D2A19"/>
</svg>
